<svg width="18" height="18" viewBox="0 0 18 18" fill="none" xmlns="http://www.w3.org/2000/svg">
<path d="M17.0065 0H0.9935C0.730008 0 0.477307 0.104672 0.290989 0.290989C0.104672 0.477307 0 0.730008 0 0.9935V17.0068C6.62932e-05 17.2702 0.104768 17.5228 0.291078 17.7091C0.477388 17.8954 0.730051 18 0.9935 18H9.61425V11.0295H7.2685V8.313H9.61425V6.3095C9.61425 3.9845 11.0342 2.71875 13.1082 2.71875C14.1017 2.71875 14.9555 2.7925 15.2045 2.82575V5.2555L13.766 5.25625C12.638 5.25625 12.4198 5.79225 12.4198 6.57875V8.31325H15.1098L14.7595 11.0297H12.4198V18H17.0068C17.2702 17.9999 17.5228 17.8952 17.7091 17.7089C17.8954 17.5226 18 17.2699 18 17.0065V0.9935C18 0.730008 17.8953 0.477307 17.709 0.290989C17.5227 0.104672 17.27 0 17.0065 0Z" fill="white"/>
</svg>
